<?xml version="1.0" encoding="UTF-8" standalone="no"?>
<svg
   enable-background="new 0 0 24 24"
   height="24px"
   viewBox="0 0 24 24"
   width="24px"
   fill="#5f6368"
   version="1.1"
   id="svg792"
   sodipodi:docname="file.svg"
   inkscape:version="1.2.2 (b0a8486541, 2022-12-01)"
   xmlns:inkscape="http://www.inkscape.org/namespaces/inkscape"
   xmlns:sodipodi="http://sodipodi.sourceforge.net/DTD/sodipodi-0.dtd"
   xmlns="http://www.w3.org/2000/svg"
   xmlns:svg="http://www.w3.org/2000/svg">
  <defs
     id="defs796" />
  <sodipodi:namedview
     id="namedview794"
     pagecolor="#ffffff"
     bordercolor="#000000"
     borderopacity="0.25"
     inkscape:showpageshadow="2"
     inkscape:pageopacity="0.0"
     inkscape:pagecheckerboard="0"
     inkscape:deskcolor="#d1d1d1"
     showgrid="false"
     inkscape:zoom="28.833333"
     inkscape:cx="11.982659"
     inkscape:cy="12"
     inkscape:window-width="1547"
     inkscape:window-height="870"
     inkscape:window-x="53"
     inkscape:window-y="30"
     inkscape:window-maximized="1"
     inkscape:current-layer="svg792" />
  <g
     id="g786">
    <rect
       fill="none"
       height="24"
       width="24"
       id="rect784" />
  </g>
  <g
     id="g790">
    <path
       d="M13.17,2H6C4.9,2,4,2.9,4,4v16c0,1.1,0.9,2,2,2h9v-6c0-1.1,0.9-2,2-2h3V8.83c0-0.53-0.21-1.04-0.59-1.41l-4.83-4.83 C14.21,2.21,13.7,2,13.17,2z M13,8V3.5L18.5,9H14C13.45,9,13,8.55,13,8z M22.66,17c0,0.55-0.45,1-1,1h-1.24l2.24,2.24 c0.39,0.39,0.39,1.02,0,1.41l0,0c-0.39,0.39-1.02,0.39-1.41,0L19,19.41l0,1.24c0,0.55-0.45,1-1,1c-0.55,0-1-0.45-1-1V17 c0-0.55,0.45-1,1-1h3.66C22.21,16,22.66,16.45,22.66,17z"
       id="path788" />
  </g>
  <path
     style="fill:#000000;stroke-width:0.0346821"
     d="M 5.6011561,21.934332 C 4.9034423,21.78394 4.320989,21.246463 4.1000434,20.549133 L 4.0231214,20.306358 V 12 3.6936416 L 4.1000434,3.4508671 C 4.2675848,2.922087 4.6459013,2.4738491 5.1226739,2.2392316 5.5972319,2.0057037 5.4579503,2.0127651 9.5895954,2.0127651 c 4.1339696,0 3.9880736,-0.00743 4.4739886,0.2279407 0.250572,0.1213753 0.356996,0.2228751 2.900565,2.7663457 2.81838,2.8182699 2.78254,2.7783709 2.948066,3.2819658 0.05793,0.1762436 0.06355,0.3996559 0.0739,2.9374787 l 0.01121,2.746727 -1.692305,0.0105 -1.692304,0.0105 -0.259333,0.09464 c -0.502001,0.183205 -0.888978,0.515065 -1.126856,0.966358 C 14.991229,15.50162 15,15.355096 15,18.839657 v 3.148782 l -4.586705,-0.0028 c -3.7949681,-0.0023 -4.6256188,-0.01114 -4.8121389,-0.05135 z M 18.50289,8.9914113 c 0,-0.034011 -5.454347,-5.4885211 -5.488357,-5.4885211 -0.01435,0 -0.02609,1.0528827 -0.02609,2.3397395 0,2.2643001 0.0023,2.3456521 0.0701,2.5231214 0.0772,0.2019728 0.159219,0.3076665 0.353778,0.4559237 0.252343,0.1922886 0.231578,0.1908329 2.758204,0.193346 1.282804,0.00128 2.33237,-0.00935 2.33237,-0.02361 z"
     id="path798" />
  <path
     style="fill:#ffffff;stroke-width:0.0346821"
     d="m 21.693417,21.888747 c -0.232983,-0.07644 -0.412981,-0.234656 -1.514128,-1.330935 l -1.184873,-1.179634 -0.01205,0.758888 c -0.01179,0.743069 -0.01396,0.762502 -0.103938,0.932298 -0.19046,0.359417 -0.495585,0.550705 -0.878433,0.550705 -0.382694,0 -0.687361,-0.190917 -0.878819,-0.550705 l -0.09228,-0.17341 -0.01002,-1.989377 c -0.01113,-2.209212 -0.01086,-2.212353 0.212851,-2.505337 0.06481,-0.08487 0.201507,-0.200548 0.304245,-0.25745 l 0.186564,-0.103328 2.042745,-0.0097 c 2.275283,-0.01085 2.237488,-0.01419 2.513313,0.22191 0.225346,0.192888 0.324807,0.392277 0.343873,0.689363 0.01386,0.215961 0.0039,0.279573 -0.06902,0.438741 -0.108571,0.237151 -0.271325,0.399382 -0.512783,0.511138 -0.181386,0.08395 -0.227257,0.08908 -0.914615,0.102258 l -0.723652,0.01387 1.181574,1.183859 c 1.241762,1.244161 1.297379,1.312839 1.345099,1.660997 0.04743,0.346013 -0.176667,0.761626 -0.507849,0.941878 -0.194584,0.105906 -0.551159,0.151963 -0.727814,0.09401 z"
     id="path800" />
  <path
     style="fill:#ffffff;stroke-width:0.0346821"
     d="M 9.3641618,21.954366 C 5.8873045,21.937628 5.571761,21.931349 5.4336669,21.876166 4.7632906,21.608279 4.3338567,21.165606 4.1082605,20.509899 4.0417211,20.316499 4.0404624,20.158507 4.0404624,12 c 0,-8.1585065 0.00126,-8.316499 0.067798,-8.5098988 C 4.375916,2.7121469 4.9918918,2.1736398 5.7225434,2.0788397 5.9039811,2.0552987 7.308258,2.0464298 9.7803468,2.0532122 l 3.7803472,0.010372 0.223562,0.080694 c 0.122958,0.044382 0.310242,0.1371263 0.416185,0.2060996 0.214404,0.1395864 4.908684,4.8098316 5.286133,5.2590675 0.292345,0.3479473 0.401708,0.5706891 0.439133,0.8943923 0.01611,0.1393637 0.03492,1.4178971 0.04179,2.8411854 l 0.0125,2.587797 -0.310356,0.02203 c -0.170696,0.01212 -0.931829,0.02203 -1.691408,0.02203 H 16.59718 l -0.266628,0.105916 c -0.146646,0.05825 -0.349227,0.160741 -0.450179,0.22775 -0.415635,0.275882 -0.773519,0.797085 -0.843502,1.22843 -0.02339,0.144186 -0.03644,1.333414 -0.03661,3.336748 L 15,21.988439 l -0.927746,-0.0079 c -0.51026,-0.0044 -2.628901,-0.01613 -4.7080922,-0.02614 z M 18.50289,8.9774761 c 0,-0.05247 -5.421587,-5.4745859 -5.474052,-5.4745859 -0.03035,0 -0.0404,0.5852747 -0.0404,2.3522032 0,2.6086755 -0.0059,2.5357453 0.227914,2.8089239 0.156546,0.1828887 0.322875,0.2831723 0.526519,0.3174514 0.276847,0.046601 4.760018,0.04284 4.760018,-0.00399 z"
     id="path818" />
</svg>
