<?xml version="1.0" encoding="UTF-8" standalone="no"?>
<svg
   height="24px"
   viewBox="0 0 24 24"
   width="24px"
   fill="#5f6368"
   version="1.1"
   id="svg6"
   sodipodi:docname="note.svg"
   inkscape:version="1.2.2 (b0a8486541, 2022-12-01)"
   xmlns:inkscape="http://www.inkscape.org/namespaces/inkscape"
   xmlns:sodipodi="http://sodipodi.sourceforge.net/DTD/sodipodi-0.dtd"
   xmlns="http://www.w3.org/2000/svg"
   xmlns:svg="http://www.w3.org/2000/svg">
  <defs
     id="defs10" />
  <sodipodi:namedview
     id="namedview8"
     pagecolor="#ffffff"
     bordercolor="#000000"
     borderopacity="0.25"
     inkscape:showpageshadow="2"
     inkscape:pageopacity="0.0"
     inkscape:pagecheckerboard="0"
     inkscape:deskcolor="#d1d1d1"
     showgrid="false"
     inkscape:zoom="37.53134"
     inkscape:cx="15.333852"
     inkscape:cy="13.428777"
     inkscape:window-width="1547"
     inkscape:window-height="870"
     inkscape:window-x="53"
     inkscape:window-y="30"
     inkscape:window-maximized="1"
     inkscape:current-layer="svg6" />
  <path
     d="M0 0h24v24H0V0z"
     fill="none"
     id="path2" />
  <path
     d="M14.59 2.59c-.38-.38-.89-.59-1.42-.59H6c-1.1 0-2 .9-2 2v16c0 1.1.89 2 1.99 2H18c1.1 0 2-.9 2-2V8.83c0-.53-.21-1.04-.59-1.41l-4.82-4.83zM15 16h-2v2c0 .55-.45 1-1 1s-1-.45-1-1v-2H9c-.55 0-1-.45-1-1s.45-1 1-1h2v-2c0-.55.45-1 1-1s1 .45 1 1v2h2c.55 0 1 .45 1 1s-.45 1-1 1zm-2-8V3.5L18.5 9H14c-.55 0-1-.45-1-1z"
     id="path4" />
  <path
     style="fill:#ffffff;stroke-width:0.0346821"
     d="M 5.6358382,21.950371 C 4.9275942,21.812102 4.3245806,21.262043 4.0997017,20.549133 l -0.07658,-0.242775 V 12 3.6936416 L 4.1000434,3.4508671 C 4.2675848,2.922087 4.6459013,2.4738491 5.1226739,2.2392316 5.5972319,2.0057037 5.4579503,2.0127651 9.5895954,2.0127651 c 4.1339696,0 3.9880736,-0.00743 4.4739886,0.2279407 0.250572,0.1213753 0.356996,0.2228751 2.900565,2.7663457 2.836194,2.8360833 2.793473,2.7882928 2.949282,3.2993069 0.06041,0.1981318 0.06345,0.4903117 0.06345,6.1040466 v 5.895953 l -0.07692,0.242775 c -0.167542,0.52878 -0.545858,0.977018 -1.022631,1.211635 -0.487776,0.240033 -0.07838,0.226809 -6.912008,0.223269 -3.3953758,-0.0018 -6.2436417,-0.01691 -6.3294798,-0.03367 z m 6.8217468,-3.0426 c 0.188081,-0.09675 0.36969,-0.285345 0.469127,-0.487172 0.07655,-0.155369 0.07941,-0.196062 0.0899,-1.276819 l 0.01083,-1.116335 1.116335,-0.01083 c 1.080757,-0.01049 1.12145,-0.01335 1.276819,-0.0899 0.199974,-0.09852 0.388679,-0.279246 0.489848,-0.469127 0.11195,-0.210113 0.11195,-0.705057 0,-0.91517 -0.101169,-0.189881 -0.289874,-0.370603 -0.489848,-0.469127 -0.155369,-0.07655 -0.196062,-0.07941 -1.276819,-0.0899 l -1.116335,-0.01083 -0.01083,-1.116335 c -0.01049,-1.080757 -0.01335,-1.12145 -0.0899,-1.276819 -0.09852,-0.199974 -0.279246,-0.388679 -0.469127,-0.489848 -0.210113,-0.11195 -0.705057,-0.11195 -0.91517,0 -0.189881,0.101169 -0.370603,0.289874 -0.469127,0.489848 -0.07655,0.155369 -0.07941,0.196062 -0.0899,1.276819 l -0.01083,1.116335 -1.1163352,0.01083 c -1.0807571,0.01049 -1.12145,0.01335 -1.2768191,0.0899 -0.1999738,0.09852 -0.3886783,0.279246 -0.4898476,0.469127 -0.11195,0.210113 -0.11195,0.705057 0,0.91517 0.1011693,0.189881 0.2898738,0.370603 0.4898476,0.469127 0.1553899,0.07656 0.1959843,0.07941 1.2789808,0.08991 l 1.1184975,0.01085 8.49e-4,1.029616 c 4.69e-4,0.566482 0.01666,1.099819 0.03601,1.185687 0.06893,0.305968 0.333471,0.598416 0.646991,0.715242 0.191302,0.07128 0.612201,0.04474 0.79686,-0.05025 z M 18.50289,8.9914113 c 0,-0.034011 -5.454347,-5.4885211 -5.488357,-5.4885211 -0.01435,0 -0.02609,1.0528827 -0.02609,2.3397395 0,2.2643001 0.0023,2.3456521 0.0701,2.5231214 0.0772,0.2019728 0.159219,0.3076665 0.353778,0.4559237 0.252343,0.1922886 0.231578,0.1908329 2.758204,0.193346 1.282804,0.00128 2.33237,-0.00935 2.33237,-0.02361 z"
     id="path185" />
  <path
     style="fill:#000000;stroke-width:0.0266444"
     d="M 13.721865,8.9420652 C 13.391907,8.8382501 13.110222,8.5407832 13.042524,8.2246618 13.021795,8.1278683 13.015368,7.4073126 13.021032,5.8150886 l 0.0081,-2.2714866 2.71768,2.7177803 2.717679,2.7177801 -2.318013,-0.00178 c -1.784427,-0.00137 -2.342547,-0.0095 -2.424592,-0.035315 z"
     id="path696" />
  <path
     style="fill:#000000"
     d="m 10.965022,13.965934 0.02152,-2.074176 0.08655,-0.307237 0.252276,-0.331692 0.433848,-0.215992 0.526698,-0.03491 0.399793,0.248088 0.200383,0.274979 0.0914,0.387402 0.03493,2.023102 2.166429,0.07522 0.305854,0.07711 0.311221,0.319308 0.204686,0.349933 0.01621,0.265265 -0.06271,0.295081 -0.217546,0.388059 -0.262407,0.166791 -0.284801,0.103508 -2.169075,0.04106 -0.02699,2.10072 -0.0664,0.403371 -0.22032,0.232085 -0.399946,0.17257 -0.314019,0.08188 -0.31356,-0.05336 -0.230241,-0.112982 -0.297573,-0.237125 -0.139636,-0.381396 0.0055,-2.187932 L 8.7709787,15.955222 8.551995,15.873155 8.2977853,15.688643 8.1300999,15.392348 8.045475,15.0511 8.0220619,14.646605 8.1999471,14.438914 8.4288232,14.190443 8.7343638,13.990137 Z"
     id="path698" />
</svg>
